<mxfile host="app.diagrams.net" modified="2024-01-31T04:07:51.678Z" agent="Mozilla/5.0 (Windows NT 10.0; Win64; x64) AppleWebKit/537.36 (KHTML, like Gecko) Chrome/120.0.0.0 Safari/537.36" etag="qvJm6FSNVAd_7GLs3GVx" version="23.0.2" type="github">
  <diagram name="Page-1" id="noBK73M3spCsqH1TY9yd">
    <mxGraphModel dx="756" dy="419" grid="1" gridSize="10" guides="1" tooltips="1" connect="1" arrows="1" fold="1" page="1" pageScale="1" pageWidth="850" pageHeight="1100" math="0" shadow="0">
      <root>
        <mxCell id="0" />
        <mxCell id="1" parent="0" />
        <mxCell id="Sp2IMunT2PbhY9EcqRZI-1" value="" style="rounded=0;whiteSpace=wrap;html=1;" vertex="1" parent="1">
          <mxGeometry x="15" y="30" width="720" height="490" as="geometry" />
        </mxCell>
        <mxCell id="Sp2IMunT2PbhY9EcqRZI-8" value="" style="edgeStyle=orthogonalEdgeStyle;rounded=0;orthogonalLoop=1;jettySize=auto;html=1;" edge="1" parent="1" source="Sp2IMunT2PbhY9EcqRZI-2" target="Sp2IMunT2PbhY9EcqRZI-3">
          <mxGeometry relative="1" as="geometry" />
        </mxCell>
        <mxCell id="Sp2IMunT2PbhY9EcqRZI-2" value="User" style="rounded=1;whiteSpace=wrap;html=1;" vertex="1" parent="1">
          <mxGeometry x="70" y="160" width="60" height="30" as="geometry" />
        </mxCell>
        <mxCell id="Sp2IMunT2PbhY9EcqRZI-9" value="" style="edgeStyle=orthogonalEdgeStyle;rounded=0;orthogonalLoop=1;jettySize=auto;html=1;" edge="1" parent="1" source="Sp2IMunT2PbhY9EcqRZI-3" target="Sp2IMunT2PbhY9EcqRZI-4">
          <mxGeometry relative="1" as="geometry" />
        </mxCell>
        <mxCell id="Sp2IMunT2PbhY9EcqRZI-3" value="Datang ke perpustakaan" style="rounded=1;whiteSpace=wrap;html=1;" vertex="1" parent="1">
          <mxGeometry x="183" y="155" width="90" height="40" as="geometry" />
        </mxCell>
        <mxCell id="Sp2IMunT2PbhY9EcqRZI-10" value="" style="edgeStyle=orthogonalEdgeStyle;rounded=0;orthogonalLoop=1;jettySize=auto;html=1;" edge="1" parent="1" source="Sp2IMunT2PbhY9EcqRZI-4" target="Sp2IMunT2PbhY9EcqRZI-5">
          <mxGeometry relative="1" as="geometry" />
        </mxCell>
        <mxCell id="Sp2IMunT2PbhY9EcqRZI-4" value="Isi form kunjungan" style="rounded=1;whiteSpace=wrap;html=1;" vertex="1" parent="1">
          <mxGeometry x="330" y="155" width="90" height="40" as="geometry" />
        </mxCell>
        <mxCell id="Sp2IMunT2PbhY9EcqRZI-11" value="" style="edgeStyle=orthogonalEdgeStyle;rounded=0;orthogonalLoop=1;jettySize=auto;html=1;" edge="1" parent="1" source="Sp2IMunT2PbhY9EcqRZI-5" target="Sp2IMunT2PbhY9EcqRZI-6">
          <mxGeometry relative="1" as="geometry" />
        </mxCell>
        <mxCell id="Sp2IMunT2PbhY9EcqRZI-5" value="Kirim" style="rounded=1;whiteSpace=wrap;html=1;" vertex="1" parent="1">
          <mxGeometry x="476" y="160" width="75" height="30" as="geometry" />
        </mxCell>
        <mxCell id="Sp2IMunT2PbhY9EcqRZI-16" value="" style="edgeStyle=orthogonalEdgeStyle;rounded=0;orthogonalLoop=1;jettySize=auto;html=1;" edge="1" parent="1" source="Sp2IMunT2PbhY9EcqRZI-6" target="Sp2IMunT2PbhY9EcqRZI-7">
          <mxGeometry relative="1" as="geometry" />
        </mxCell>
        <mxCell id="Sp2IMunT2PbhY9EcqRZI-6" value="Riwayat kunjungan" style="rounded=1;whiteSpace=wrap;html=1;" vertex="1" parent="1">
          <mxGeometry x="610" y="155" width="90" height="40" as="geometry" />
        </mxCell>
        <mxCell id="Sp2IMunT2PbhY9EcqRZI-20" value="" style="edgeStyle=orthogonalEdgeStyle;rounded=0;orthogonalLoop=1;jettySize=auto;html=1;" edge="1" parent="1" source="Sp2IMunT2PbhY9EcqRZI-7" target="Sp2IMunT2PbhY9EcqRZI-17">
          <mxGeometry relative="1" as="geometry" />
        </mxCell>
        <mxCell id="Sp2IMunT2PbhY9EcqRZI-7" value="Halaman beranda" style="rounded=1;whiteSpace=wrap;html=1;" vertex="1" parent="1">
          <mxGeometry x="610" y="278" width="90" height="50" as="geometry" />
        </mxCell>
        <mxCell id="Sp2IMunT2PbhY9EcqRZI-12" value="" style="endArrow=classic;html=1;rounded=0;exitX=0.5;exitY=1;exitDx=0;exitDy=0;" edge="1" parent="1" source="Sp2IMunT2PbhY9EcqRZI-5" target="Sp2IMunT2PbhY9EcqRZI-4">
          <mxGeometry width="50" height="50" relative="1" as="geometry">
            <mxPoint x="360" y="250" as="sourcePoint" />
            <mxPoint x="410" y="200" as="targetPoint" />
            <Array as="points">
              <mxPoint x="514" y="260" />
              <mxPoint x="375" y="260" />
            </Array>
          </mxGeometry>
        </mxCell>
        <mxCell id="Sp2IMunT2PbhY9EcqRZI-14" value="Berhasil" style="text;html=1;strokeColor=none;fillColor=none;align=center;verticalAlign=middle;whiteSpace=wrap;rounded=0;" vertex="1" parent="1">
          <mxGeometry x="550" y="150" width="60" height="30" as="geometry" />
        </mxCell>
        <mxCell id="Sp2IMunT2PbhY9EcqRZI-15" value="Gagal" style="text;html=1;strokeColor=none;fillColor=none;align=center;verticalAlign=middle;whiteSpace=wrap;rounded=0;rotation=-90;" vertex="1" parent="1">
          <mxGeometry x="472" y="207" width="60" height="30" as="geometry" />
        </mxCell>
        <mxCell id="Sp2IMunT2PbhY9EcqRZI-21" value="" style="edgeStyle=orthogonalEdgeStyle;rounded=0;orthogonalLoop=1;jettySize=auto;html=1;" edge="1" parent="1" source="Sp2IMunT2PbhY9EcqRZI-17" target="Sp2IMunT2PbhY9EcqRZI-18">
          <mxGeometry relative="1" as="geometry" />
        </mxCell>
        <mxCell id="Sp2IMunT2PbhY9EcqRZI-17" value="Pencarian Buku" style="rounded=1;whiteSpace=wrap;html=1;" vertex="1" parent="1">
          <mxGeometry x="461" y="283" width="90" height="40" as="geometry" />
        </mxCell>
        <mxCell id="Sp2IMunT2PbhY9EcqRZI-22" value="" style="edgeStyle=orthogonalEdgeStyle;rounded=0;orthogonalLoop=1;jettySize=auto;html=1;" edge="1" parent="1" source="Sp2IMunT2PbhY9EcqRZI-18" target="Sp2IMunT2PbhY9EcqRZI-19">
          <mxGeometry relative="1" as="geometry" />
        </mxCell>
        <mxCell id="Sp2IMunT2PbhY9EcqRZI-18" value="Masukan pencarian sesuai custom" style="rounded=1;whiteSpace=wrap;html=1;" vertex="1" parent="1">
          <mxGeometry x="323" y="278" width="100" height="50" as="geometry" />
        </mxCell>
        <mxCell id="Sp2IMunT2PbhY9EcqRZI-24" value="" style="edgeStyle=orthogonalEdgeStyle;rounded=0;orthogonalLoop=1;jettySize=auto;html=1;" edge="1" parent="1" source="Sp2IMunT2PbhY9EcqRZI-19" target="Sp2IMunT2PbhY9EcqRZI-23">
          <mxGeometry relative="1" as="geometry" />
        </mxCell>
        <mxCell id="Sp2IMunT2PbhY9EcqRZI-19" value="Proses mencari" style="rounded=1;whiteSpace=wrap;html=1;" vertex="1" parent="1">
          <mxGeometry x="190" y="283" width="90" height="40" as="geometry" />
        </mxCell>
        <mxCell id="Sp2IMunT2PbhY9EcqRZI-29" value="" style="edgeStyle=orthogonalEdgeStyle;rounded=0;orthogonalLoop=1;jettySize=auto;html=1;" edge="1" parent="1" source="Sp2IMunT2PbhY9EcqRZI-23" target="Sp2IMunT2PbhY9EcqRZI-28">
          <mxGeometry relative="1" as="geometry" />
        </mxCell>
        <mxCell id="Sp2IMunT2PbhY9EcqRZI-23" value="Pencarian muncul" style="rounded=1;whiteSpace=wrap;html=1;" vertex="1" parent="1">
          <mxGeometry x="50" y="283" width="80" height="40" as="geometry" />
        </mxCell>
        <mxCell id="Sp2IMunT2PbhY9EcqRZI-25" value="" style="endArrow=classic;html=1;rounded=0;entryX=0.5;entryY=1;entryDx=0;entryDy=0;" edge="1" parent="1" source="Sp2IMunT2PbhY9EcqRZI-19" target="Sp2IMunT2PbhY9EcqRZI-18">
          <mxGeometry width="50" height="50" relative="1" as="geometry">
            <mxPoint x="360" y="250" as="sourcePoint" />
            <mxPoint x="410" y="200" as="targetPoint" />
            <Array as="points">
              <mxPoint x="235" y="360" />
              <mxPoint x="373" y="360" />
            </Array>
          </mxGeometry>
        </mxCell>
        <mxCell id="Sp2IMunT2PbhY9EcqRZI-26" value="Berhasil" style="text;html=1;strokeColor=none;fillColor=none;align=center;verticalAlign=middle;whiteSpace=wrap;rounded=0;" vertex="1" parent="1">
          <mxGeometry x="133" y="276" width="60" height="30" as="geometry" />
        </mxCell>
        <mxCell id="Sp2IMunT2PbhY9EcqRZI-27" value="Tidak Ada" style="text;html=1;strokeColor=none;fillColor=none;align=center;verticalAlign=middle;whiteSpace=wrap;rounded=0;rotation=0;" vertex="1" parent="1">
          <mxGeometry x="273" y="335" width="60" height="30" as="geometry" />
        </mxCell>
        <mxCell id="Sp2IMunT2PbhY9EcqRZI-31" value="" style="edgeStyle=orthogonalEdgeStyle;rounded=0;orthogonalLoop=1;jettySize=auto;html=1;" edge="1" parent="1" source="Sp2IMunT2PbhY9EcqRZI-28" target="Sp2IMunT2PbhY9EcqRZI-30">
          <mxGeometry relative="1" as="geometry" />
        </mxCell>
        <mxCell id="Sp2IMunT2PbhY9EcqRZI-28" value="Rincian deskripsi buku" style="rounded=1;whiteSpace=wrap;html=1;" vertex="1" parent="1">
          <mxGeometry x="35" y="390" width="110" height="50" as="geometry" />
        </mxCell>
        <mxCell id="Sp2IMunT2PbhY9EcqRZI-30" value="Selesai" style="rounded=1;whiteSpace=wrap;html=1;" vertex="1" parent="1">
          <mxGeometry x="212" y="397.5" width="63" height="35" as="geometry" />
        </mxCell>
      </root>
    </mxGraphModel>
  </diagram>
</mxfile>
